<svg xmlns="http://www.w3.org/2000/svg" data-name="Layer 1" viewBox="0 0 130 130" id="eraser"><path d="M125 45.74L88.82 9.54a13.63 13.63 0 0 0-19.24 0l-25 25h0L5 74.14c-.32.33-.63.67-.92 1l-.12.16c-.24.31-.48.62-.69.94l0 0a13.61 13.61 0 0 0 0 14.93l0 0a10.82 10.82 0 0 0 .69.94l.12.17c.29.35.6.69.92 1L32.1 120.5H14.44a2 2 0 1 0 0 3.94H91.07a2 2 0 0 0 0-3.94H69.51L125 65A13.61 13.61 0 0 0 125 45.74zm-86 74.76a3.32 3.32 0 0 1-2.36-1L7.77 90.6c-.23-.24-.45-.48-.66-.73a1.13 1.13 0 0 0-.1-.13c-.16-.22-.33-.43-.47-.66l0 0a9.68 9.68 0 0 1 0-10.56l0 0c.14-.22.31-.44.47-.65l.1-.14q.32-.37.66-.72L44.58 40.12 94.45 90 64.91 119.52a3.3 3.3 0 0 1-2.35 1zm83.19-58.3l-25 25L47.36 37.33l25-25a9.67 9.67 0 0 1 13.67 0l36.2 36.2A9.67 9.67 0 0 1 122.24 62.2zM106.21 120.5H98.49a2 2 0 1 0 0 3.94h7.72a2 2 0 1 0 0-3.94z"></path></svg>