<svg xmlns="http://www.w3.org/2000/svg" data-name="Layer 361" viewBox="0 0 48.28 46.9" id="search-user"><path fill="#ffb703" d="M29.42 34.6a12.3 12.3 0 0 1-12.3 12.3h-4.83a12.29 12.29 0 0 1-8.69-3.6 12.29 12.29 0 0 1 8.69-21h4.83a12.29 12.29 0 0 1 12.3 12.29Z"></path><circle cx="14.71" cy="7.87" r="7.87" fill="#fb8500"></circle><circle cx="36.16" cy="16.88" r="8.41" fill="#4361ee"></circle><path fill="#4361ee" d="M46.78 28.97a1.47 1.47 0 0 1-1.06-.44l-4.67-4.66a1.51 1.51 0 0 1 0-2.12 1.49 1.49 0 0 1 2.12 0l4.67 4.66a1.49 1.49 0 0 1 0 2.12 1.47 1.47 0 0 1-1.06.44Z"></path></svg>